<svg id="Layer_1" viewBox="0 0 512 512" xmlns="http://www.w3.org/2000/svg" data-name="Layer 1"><path d="m492.474 229.156c-37.557-34.286-78.5-59.144-122.447-74.454l50.879-50.88a9 9 0 1 0 -12.728-12.728l-57.538 57.538a336.8 336.8 0 0 0 -91.033-12.256c-.492 0-.987 0-1.479 0-51.36-.191-97.732 7.69-137.731 23.349a271.517 271.517 0 0 0 -103.718 71.519c-12.626 14.008-12.845 32.969-.545 47.182a268.057 268.057 0 0 0 104.078 74.3q9.465 3.783 19.408 6.927l-48.526 48.525a9 9 0 0 0 12.728 12.728l55.657-55.657c27.966 6.886 58.316 10.373 90.745 10.373q3.992 0 8.031-.07h.006c96.2-1.731 175.527-33.447 235.762-94.267 7.31-7.38 11.2-16.672 10.966-26.162-.241-9.598-4.689-18.823-12.515-25.967zm-462.729 37.49c-6.458-7.46-6.347-15.972.3-23.351 53.183-59.007 129.381-88.919 226.56-88.919h1.525a320.767 320.767 0 0 1 77.739 9.019l-30.861 30.861a78.82 78.82 0 0 0 -110.749 110.756l-40.092 40.088c-49.84-14.184-91.484-40.393-124.422-78.454zm287.139-10.646a60.848 60.848 0 0 1 -97.077 48.922l85.115-85.116a60.553 60.553 0 0 1 11.962 36.194zm-121.768 0a60.848 60.848 0 0 1 97.078-48.922l-85.116 85.116a60.553 60.553 0 0 1 -11.962-36.194zm286.118 12.619c-56.819 57.37-131.947 87.292-223.292 88.937q-3.867.066-7.687.066a366.533 366.533 0 0 1 -75.674-7.474l32.407-32.407a78.82 78.82 0 0 0 110.753-110.754l38.029-38.028c44.856 14.211 86.529 38.764 124.568 73.49 4.236 3.868 6.539 8.407 6.657 13.126.116 4.612-1.876 9.125-5.761 13.044z"/></svg>